<svg xmlns="http://www.w3.org/2000/svg" width="1398" height="684" viewBox="0 0 1398 684"><path d="M 256.764 19.973 C 251.908 21.475, 247.041 25.079, 244.115 29.340 C 242.543 31.628, 194.174 147.964, 136.629 287.864 C 36.158 532.120, 32 542.477, 32 548.466 C 32 555.324, 34.044 559.495, 39.321 563.408 C 41.999 565.393, 43.551 565.515, 69.805 565.796 C 100.225 566.122, 103.026 565.713, 108.339 560.168 C 110.131 558.298, 118.921 538.362, 134.896 499.936 L 158.775 442.500 295.948 442.500 L 433.121 442.500 456.485 498.709 C 469.919 531.028, 481.051 556.433, 482.675 558.481 C 484.229 560.440, 487.386 562.961, 489.691 564.082 C 493.660 566.013, 495.524 566.112, 524.691 565.946 C 541.636 565.849, 560.405 566.113, 566.400 566.532 C 575.606 567.175, 577.167 567.076, 576.446 565.896 C 575.976 565.128, 571.290 559.325, 566.033 553 C 540.796 522.640, 502.992 469.672, 483.954 438 C 452.740 386.070, 435.520 328.247, 432.433 265 L 431.726 250.500 410.972 194.500 C 376.433 101.305, 352.872 38.722, 350.747 34.531 C 347.479 28.082, 344.773 24.965, 340 22.152 L 335.500 19.500 297.500 19.313 C 276.600 19.211, 258.269 19.508, 256.764 19.973 M 240.265 235.250 C 209.919 309.638, 184.798 371.288, 184.439 372.250 C 183.820 373.910, 189.546 374, 295.976 374 C 367.104 374, 408.045 373.649, 407.833 373.041 C 405.677 366.840, 296.357 100.018, 295.969 100.010 C 295.677 100.005, 270.611 160.862, 240.265 235.250 M 701.750 322.303 C 699.688 322.880, 698.008 323.836, 698.017 324.426 C 698.055 326.862, 707.594 342.942, 722.680 366 C 731.496 379.475, 753.474 413.675, 771.518 442 C 819.237 516.904, 833 538.146, 835.909 541.380 C 837.334 542.964, 840.525 545.213, 843 546.378 C 847.297 548.400, 849.241 548.510, 886.160 548.828 C 919.195 549.113, 925.735 548.927, 931.106 547.551 C 934.564 546.666, 937.572 545.761, 937.792 545.541 C 938.237 545.097, 912.825 504.619, 855.528 414.500 C 834.547 381.500, 814.037 349.120, 809.951 342.544 C 801.839 329.489, 798.176 325.261, 792.752 322.687 C 789.580 321.181, 784.703 321.014, 747.349 321.126 C 721.573 321.204, 704.060 321.656, 701.750 322.303 M 28.686 602.698 C 28.413 603.140, 23.381 614.527, 17.504 628.001 C 11.627 641.475, 6.315 653.109, 5.700 653.854 C 5.085 654.599, 3.551 655.600, 2.291 656.079 C -2.493 657.898, 0.069 659, 9.083 659 C 15.796 659, 18.060 658.681, 17.759 657.778 C 17.535 657.105, 16.260 656.299, 14.926 655.987 C 11.576 655.201, 11.429 652.348, 14.394 645.643 L 16.890 640 27.339 640 L 37.787 640 40.376 646.465 C 43.232 653.600, 43.049 655.520, 39.428 656.429 C 38.092 656.764, 37 657.480, 37 658.019 C 37 659.266, 58.671 659.341, 59.440 658.097 C 59.747 657.601, 58.672 656.733, 57.051 656.168 C 55.431 655.603, 53.556 654.262, 52.886 653.189 C 52.216 652.115, 47.128 640.308, 41.581 626.951 C 32.327 604.669, 30.080 600.443, 28.686 602.698 M 86.453 603.326 C 77.843 606.644, 71.192 613.876, 68.877 622.441 C 67.400 627.905, 68.245 640.700, 70.350 644.737 C 72.982 649.784, 77.922 654.915, 82.405 657.257 C 85.557 658.903, 88.342 659.408, 94.500 659.448 C 101.496 659.493, 103.092 659.152, 107.218 656.727 C 112.048 653.887, 118.760 645.588, 117.070 644.544 C 116.553 644.224, 114.928 645.539, 113.458 647.466 C 103.516 660.501, 83.375 657.127, 79.057 641.704 C 76.989 634.317, 78.019 620.507, 81.047 615.021 C 88.518 601.488, 106.833 602.348, 112.654 616.505 C 113.670 618.973, 114.904 620.994, 115.398 620.996 C 116.345 621, 115.539 603.205, 114.548 602.214 C 114.235 601.902, 113.351 602.505, 112.584 603.554 C 111.234 605.400, 111.028 605.406, 106.344 603.726 C 100.854 601.758, 91.035 601.561, 86.453 603.326 M 148.453 603.326 C 139.843 606.644, 133.192 613.876, 130.877 622.441 C 129.400 627.905, 130.245 640.700, 132.350 644.737 C 134.982 649.784, 139.922 654.915, 144.405 657.257 C 147.557 658.903, 150.342 659.408, 156.500 659.448 C 163.496 659.493, 165.092 659.152, 169.218 656.727 C 174.048 653.887, 180.760 645.588, 179.070 644.544 C 178.553 644.224, 176.928 645.539, 175.458 647.466 C 165.516 660.501, 145.375 657.127, 141.057 641.704 C 138.989 634.317, 140.019 620.507, 143.047 615.021 C 150.518 601.488, 168.833 602.348, 174.654 616.505 C 175.670 618.973, 176.904 620.994, 177.398 620.996 C 178.345 621, 177.539 603.205, 176.548 602.214 C 176.235 601.902, 175.351 602.505, 174.584 603.554 C 173.234 605.400, 173.028 605.406, 168.344 603.726 C 162.854 601.758, 153.035 601.561, 148.453 603.326 M 258.500 603.861 C 253.867 606.722, 251.879 609.481, 251.292 613.862 C 250.140 622.445, 253.246 626.694, 266.089 634.106 C 280.051 642.164, 282.963 647.191, 277.077 653.077 C 274.795 655.359, 273.253 656, 270.045 656 C 261.860 656, 256.033 651.719, 254.051 644.250 C 252.167 637.150, 251 639.349, 251 650 C 251 655.500, 251.288 660, 251.640 660 C 251.992 660, 252.850 659.220, 253.546 658.268 C 254.699 656.692, 255.251 656.661, 259.657 657.926 C 270.833 661.134, 277.811 660.122, 283.459 654.474 C 287.509 650.424, 288.755 645.463, 287.105 639.956 C 285.740 635.400, 281.650 631.783, 271.751 626.380 C 258.515 619.156, 255.128 613.781, 260.455 608.455 C 262.301 606.609, 263.974 606.001, 267.205 606.004 C 274.431 606.010, 279.987 610.581, 281.481 617.750 C 282.778 623.970, 284 620.939, 284 611.500 C 284 606.275, 283.712 602, 283.360 602 C 283.008 602, 282.172 602.749, 281.503 603.666 C 280.366 605.220, 280.006 605.220, 276.122 603.666 C 270.504 601.418, 262.308 601.508, 258.500 603.861 M 311.218 603.663 C 302.318 608.050, 300.440 619.373, 307.450 626.384 C 309.295 628.228, 314.895 632.079, 319.895 634.940 C 329.643 640.519, 332 642.894, 332 647.141 C 332 651.195, 331.049 652.923, 327.928 654.537 C 319.170 659.066, 308.304 653.371, 306.392 643.250 C 305.181 636.845, 304 640.179, 304 650 C 304 656, 304.400 660, 305 660 C 305.550 660, 306 659.325, 306 658.500 C 306 656.616, 308.170 656.618, 314.409 658.511 C 321.241 660.583, 325.838 660.373, 331.030 657.750 C 336.845 654.812, 340 650.054, 340 644.220 C 340 637.130, 337.500 634.274, 324.461 626.472 C 313.787 620.084, 310 616.589, 310 613.126 C 310 612.591, 311.165 610.769, 312.589 609.077 C 314.780 606.472, 315.875 606, 319.721 606 C 327.137 606, 332.776 610.852, 334.151 618.417 C 334.343 619.472, 335.063 620.522, 335.750 620.750 C 336.692 621.064, 337 618.805, 337 611.583 C 337 601.927, 336.174 600.012, 333.554 603.595 C 332.487 605.054, 332.065 605.054, 328.572 603.595 C 323.689 601.554, 315.431 601.587, 311.218 603.663 M 397.399 603.906 C 387.827 608.253, 381.902 617.453, 381.236 629 C 380.490 641.948, 385.204 650.417, 397.192 657.664 C 399.773 659.224, 404.948 662.636, 408.692 665.246 C 415.646 670.093, 423.175 673.246, 430.750 674.482 C 436.569 675.432, 436.212 673.599, 430.253 671.931 C 426.960 671.009, 424.052 669.147, 420.753 665.849 C 418.139 663.234, 416 660.633, 416 660.068 C 416 659.503, 417.688 658.170, 419.750 657.105 C 437.315 648.039, 440.896 622.377, 426.454 609.065 C 424.079 606.875, 420.475 604.390, 418.445 603.542 C 413.289 601.387, 402.535 601.574, 397.399 603.906 M 531.055 619.247 C 517.540 650.570, 515.351 654.916, 512.556 655.979 C 507.528 657.890, 509.894 659, 519 659 C 528.218 659, 530.316 658.003, 525 656.150 C 521.329 654.870, 521.198 653.014, 524.250 645.525 L 526.500 640.003 537.111 640.001 L 547.722 640 549.861 645.589 C 552.648 652.873, 552.581 654.829, 549.500 656 C 544.225 658.006, 547.042 659, 558 659 C 568.813 659, 571.776 658.006, 566.709 656.079 C 565.449 655.600, 563.816 654.483, 563.080 653.597 C 562.344 652.710, 557.118 640.851, 551.466 627.242 C 545.814 613.634, 540.585 602.386, 539.845 602.247 C 538.973 602.083, 535.880 608.064, 531.055 619.247 M 834.241 604.567 C 813.687 614.810, 812.743 647.310, 832.715 657.144 C 839.298 660.385, 850.634 660.441, 856.643 657.261 C 860.981 654.965, 868 647.585, 868 645.320 C 868 643.380, 867.740 643.546, 862.391 648.895 C 856.903 654.383, 851.307 656.508, 845.235 655.409 C 833.074 653.207, 826.882 642.877, 828.343 627.229 C 829.436 615.524, 834.448 608.132, 842.700 606.054 C 851.266 603.897, 859.264 608.075, 863.177 616.750 C 865.770 622.499, 867.451 622.310, 866.636 616.360 C 866.286 613.809, 866 609.534, 866 606.860 C 866 601.760, 864.721 600.631, 862.454 603.731 C 861.254 605.373, 860.938 605.373, 856.344 603.726 C 849.085 601.124, 840.494 601.451, 834.241 604.567 M 898 603.315 C 896.075 603.926, 891.950 606.918, 888.833 609.963 C 884.221 614.470, 882.848 616.605, 881.457 621.442 C 878.352 632.228, 880.692 643.333, 887.705 651.095 C 900.465 665.219, 923.096 661.724, 931.649 644.307 C 935.363 636.743, 935.682 625.098, 932.371 618 C 929.766 612.418, 923.778 606.326, 918.500 603.890 C 913.961 601.795, 903.695 601.507, 898 603.315 M 1022.241 603.995 C 1015.705 607.979, 1013.134 616.490, 1016.499 622.998 C 1018.297 626.474, 1021.861 629.251, 1032.500 635.465 C 1036.900 638.034, 1041.277 641.118, 1042.228 642.318 C 1046.634 647.882, 1041.779 656, 1034.045 656 C 1025.922 656, 1020.761 652.292, 1018.573 644.883 C 1016.282 637.124, 1015 638.931, 1015 649.917 C 1015 659.674, 1015.792 661.980, 1017.869 658.269 C 1018.788 656.628, 1019.175 656.628, 1025.333 658.269 C 1033.938 660.562, 1037.681 660.452, 1043.030 657.750 C 1054.465 651.973, 1055.082 638.833, 1044.266 631.424 C 1042.195 630.005, 1037.018 626.846, 1032.761 624.404 C 1028.505 621.962, 1024.293 618.851, 1023.401 617.490 C 1021.469 614.541, 1022.132 610.868, 1025.140 607.860 C 1026.885 606.115, 1028.119 605.845, 1032.636 606.220 C 1039.255 606.769, 1043.564 610.358, 1045.276 616.750 C 1045.903 619.087, 1046.771 621, 1047.207 621 C 1047.643 621, 1048 616.725, 1048 611.500 C 1048 606.275, 1047.712 602, 1047.360 602 C 1047.008 602, 1046.172 602.749, 1045.503 603.666 C 1044.366 605.220, 1044.006 605.220, 1040.122 603.666 C 1034.358 601.359, 1026.321 601.507, 1022.241 603.995 M 1354.500 604.353 C 1344.285 609.120, 1337.808 619.576, 1337.684 631.500 C 1337.564 643.116, 1343.517 652.601, 1353.911 657.353 C 1360.362 660.303, 1375.323 660.280, 1382.500 657.309 L 1387.500 655.239 1387.785 643.930 C 1388.075 632.373, 1388.814 630, 1392.122 630 C 1393.155 630, 1394 629.550, 1394 629 C 1394 628.394, 1389.667 628, 1383 628 C 1376.333 628, 1372 628.394, 1372 629 C 1372 629.550, 1373.035 630, 1374.300 630 C 1378.382 630, 1379 631.731, 1379 643.153 L 1379 653.906 1375.250 654.947 C 1359.611 659.291, 1347.674 648.454, 1347.644 629.887 C 1347.634 623.598, 1348.109 621.297, 1350.378 616.661 C 1353.505 610.268, 1356.687 607.611, 1363.167 605.980 C 1371.627 603.849, 1379.836 607.876, 1383.472 615.937 C 1386.387 622.402, 1387.316 620.971, 1386.517 611.250 C 1386.121 606.438, 1385.613 602.308, 1385.388 602.073 C 1385.163 601.838, 1384.421 602.396, 1383.740 603.312 C 1382.608 604.832, 1382.071 604.847, 1377.591 603.489 C 1370.067 601.207, 1360.472 601.566, 1354.500 604.353 M 190 604 C 190 604.550, 191.334 605, 192.965 605 C 194.873 605, 196.299 605.690, 196.965 606.934 C 197.590 608.103, 198 617.753, 198 631.312 C 198 655.347, 198.030 655.201, 192.744 656.528 C 185.891 658.248, 191.570 659, 211.410 659 L 232.819 659 235.341 651.500 C 238.187 643.035, 237.080 641.457, 233 648.163 C 229.761 653.486, 226.011 655, 216.067 655 C 206.166 655, 206 654.770, 206 641.066 L 206 631 212.750 631.100 C 222.340 631.241, 224.325 631.972, 225.457 635.781 C 227.133 641.419, 228 639.276, 228 629.500 C 228 619.724, 227.133 617.581, 225.457 623.219 C 224.325 627.028, 222.340 627.759, 212.750 627.900 L 206 628 206 617.500 L 206 607 216.429 607 C 227.911 607, 229.314 607.602, 230.509 613.043 C 231.197 616.173, 233.567 616.682, 233.417 613.667 C 233.371 612.750, 233.258 609.975, 233.167 607.500 L 233 603 211.500 603 C 197.833 603, 190 603.364, 190 604 M 445 604 C 445 604.550, 446.070 605, 447.378 605 C 452.011 605, 452.465 606.895, 453 628.482 L 453.500 648.663 456.302 652.333 C 459.970 657.137, 463.687 658.954, 471.278 659.654 C 479.332 660.397, 485.139 658.772, 489.941 654.434 C 495.109 649.766, 496 645.551, 496 625.780 C 496 607.897, 496.775 605, 501.557 605 C 502.901 605, 504 604.550, 504 604 C 504 603.400, 500 603, 494 603 C 488 603, 484 603.400, 484 604 C 484 604.550, 485.093 605, 486.429 605 C 487.764 605, 489.605 605.748, 490.520 606.662 C 491.977 608.120, 492.140 610.636, 491.841 627.091 C 491.463 647.913, 491.053 649.297, 484.064 653.389 C 479.817 655.877, 471.236 656.040, 467.667 653.702 C 461.843 649.885, 461.500 648.388, 461.500 626.762 C 461.500 605.472, 461.602 605.050, 466.750 605.015 C 467.988 605.007, 469 604.550, 469 604 C 469 603.389, 464.333 603, 457 603 C 449.667 603, 445 603.389, 445 604 M 577 604 C 577 604.550, 578.260 605, 579.800 605 C 584.872 605, 585 605.632, 585 630.643 C 585 653.529, 584.966 653.911, 582.777 655.443 C 581.555 656.299, 579.755 657, 578.777 657 C 577.800 657, 577 657.459, 577 658.020 C 577 658.689, 584.463 658.947, 598.750 658.770 L 620.500 658.500 622.837 651.171 C 624.123 647.139, 624.849 643.539, 624.450 643.171 C 624.052 642.802, 623.532 643.041, 623.296 643.702 C 622.251 646.619, 618.232 651.578, 615.970 652.739 C 614.364 653.564, 610.179 653.919, 604 653.754 L 594.500 653.500 594.231 630.501 C 593.934 605.161, 593.971 605, 600.191 605 C 601.736 605, 603 604.550, 603 604 C 603 603.385, 598 603, 590 603 C 582 603, 577 603.385, 577 604 M 635 604 C 635 604.550, 636.093 605, 637.429 605 C 642.732 605, 643 606.232, 643 630.571 C 643 651.667, 642.881 653.119, 641 655 C 639.900 656.100, 638.100 657, 637 657 C 635.900 657, 635 657.450, 635 658 C 635 658.611, 639.667 659, 647 659 C 658.530 659, 662.413 657.908, 655.940 656.487 C 653.962 656.052, 652.548 654.941, 651.940 653.342 C 651.423 651.982, 651.007 641.787, 651.015 630.685 C 651.031 608.464, 651.595 605.726, 656.273 605.184 C 657.773 605.010, 659 604.447, 659 603.934 C 659 603.407, 653.764 603, 647 603 C 639.667 603, 635 603.389, 635 604 M 669.833 608 C 669.742 610.750, 669.629 613.675, 669.583 614.500 C 669.431 617.233, 671.457 616.175, 672.252 613.106 C 673.360 608.833, 676.508 607, 682.740 607 L 688.036 607 687.768 631.218 L 687.500 655.437 683.701 656.502 C 681.611 657.088, 680.223 657.890, 680.617 658.284 C 681.752 659.418, 705 659.148, 705 658 C 705 657.450, 704.200 657, 703.223 657 C 702.245 657, 700.445 656.299, 699.223 655.443 C 697.033 653.910, 697 653.535, 697 630.443 L 697 607 702.577 607 C 707.408 607, 708.545 607.391, 711.077 609.923 C 712.685 611.531, 714 613.781, 714 614.923 C 714 616.065, 714.450 617, 715 617 C 715.571 617, 716 614, 716 610 L 716 603 693 603 L 670 603 669.833 608 M 725.022 603.750 C 725.034 604.163, 726.466 605.175, 728.206 606 C 730.526 607.101, 733.847 611.332, 740.684 621.898 L 750 636.296 750 644.648 C 750 651.667, 749.681 653.319, 748 655 C 746.900 656.100, 745.100 657, 744 657 C 742.900 657, 742 657.450, 742 658 C 742 658.611, 746.667 659, 754 659 C 765.953 659, 768.894 658.119, 762.789 656.368 C 758.935 655.263, 758.238 653.306, 758.100 643.200 L 758 635.900 766.581 622.459 C 775.231 608.909, 778.714 605, 782.135 605 C 783.161 605, 784 604.550, 784 604 C 784 603.400, 780 603, 774 603 C 764.453 603, 761.139 604.065, 766.500 605.411 C 770.410 606.392, 769.642 609.558, 762.872 620.379 C 757.818 628.458, 756.519 629.939, 755.456 628.837 C 752.777 626.058, 743 609.528, 743 607.778 C 743 606.547, 743.980 605.754, 746 605.350 C 752.473 604.055, 748.431 603, 737 603 C 730.400 603, 725.010 603.337, 725.022 603.750 M 942 603.921 C 942 604.427, 943.329 605.133, 944.953 605.490 C 946.577 605.846, 949.052 607.040, 950.453 608.142 L 953 610.145 953 632.016 C 953 653.483, 952.959 653.915, 950.777 655.443 C 949.555 656.299, 947.755 657, 946.777 657 C 945.800 657, 945 657.450, 945 658 C 945 658.600, 949 659, 955 659 C 964.787 659, 968.032 657.825, 961.940 656.487 C 959.936 656.047, 958.548 654.941, 957.917 653.283 C 957.388 651.890, 957.078 642.913, 957.227 633.333 L 957.500 615.915 975.500 637.913 C 985.400 650.013, 993.837 659.932, 994.250 659.956 C 994.663 659.980, 995.007 648.862, 995.015 635.250 C 995.031 608.165, 995.455 605.743, 1000.273 605.184 C 1001.773 605.010, 1003 604.447, 1003 603.934 C 1003 603.418, 998.526 603, 993 603 C 987 603, 983 603.400, 983 604 C 983 604.550, 984.295 605, 985.878 605 C 990.769 605, 991.071 606.252, 990.774 625.327 L 990.500 642.892 974.128 622.946 L 957.757 603 949.878 603 C 945.545 603, 942 603.414, 942 603.921 M 1063 604 C 1063 604.550, 1064.013 605.007, 1065.250 605.015 C 1070.343 605.050, 1070.466 605.523, 1071 627.288 C 1071.491 647.272, 1071.549 647.726, 1074.161 651.669 C 1077.990 657.452, 1082.750 659.479, 1092.500 659.479 C 1102.249 659.479, 1107.009 657.452, 1110.839 651.671 C 1113.441 647.744, 1113.511 647.217, 1114 627.978 C 1114.535 606.930, 1115.007 605, 1119.622 605 C 1120.930 605, 1122 604.550, 1122 604 C 1122 603.400, 1118 603, 1112 603 C 1106 603, 1102 603.400, 1102 604 C 1102 604.550, 1103.295 605, 1104.878 605 C 1109.920 605, 1110.183 606.182, 1109.827 627.195 C 1109.545 643.822, 1109.249 646.870, 1107.691 649.164 C 1103.616 655.167, 1090.920 657.552, 1085.275 653.374 C 1080.292 649.686, 1079.648 646.969, 1079.258 628 C 1078.858 608.545, 1079.475 605.740, 1084.273 605.184 C 1085.773 605.010, 1087 604.447, 1087 603.934 C 1087 603.407, 1081.764 603, 1075 603 C 1067.667 603, 1063 603.389, 1063 604 M 1130 604 C 1130 604.550, 1131.295 605, 1132.878 605 C 1134.460 605, 1136.268 605.619, 1136.896 606.375 C 1137.697 607.340, 1137.957 614.844, 1137.768 631.593 L 1137.500 655.437 1133.701 656.502 C 1131.611 657.088, 1130.223 657.890, 1130.617 658.284 C 1131.011 658.678, 1140.838 659, 1152.454 659 L 1173.576 659 1176.198 651 C 1178.113 645.160, 1178.473 643, 1177.532 643 C 1176.823 643, 1175.680 644.359, 1174.992 646.020 C 1174.304 647.681, 1172.396 650.172, 1170.754 651.554 C 1167.932 653.928, 1167.204 654.052, 1157.633 653.784 L 1147.500 653.500 1147.231 630.840 C 1146.935 605.837, 1147.124 605, 1153.071 605 C 1154.682 605, 1156 604.550, 1156 604 C 1156 603.385, 1151 603, 1143 603 C 1135 603, 1130 603.385, 1130 604 M 1179.833 608 C 1179.742 610.750, 1179.629 613.675, 1179.583 614.500 C 1179.431 617.233, 1181.457 616.175, 1182.252 613.106 C 1183.360 608.833, 1186.508 607, 1192.740 607 L 1198.036 607 1197.768 631.218 L 1197.500 655.437 1193.701 656.502 C 1191.611 657.088, 1190.223 657.890, 1190.617 658.284 C 1191.752 659.418, 1215 659.148, 1215 658 C 1215 657.450, 1214.200 657, 1213.223 657 C 1212.245 657, 1210.445 656.299, 1209.223 655.443 C 1207.033 653.910, 1207 653.535, 1207 630.443 L 1207 607 1212.577 607 C 1217.408 607, 1218.545 607.391, 1221.077 609.923 C 1222.685 611.531, 1224 613.781, 1224 614.923 C 1224 616.065, 1224.450 617, 1225 617 C 1225.571 617, 1226 614, 1226 610 L 1226 603 1203 603 L 1180 603 1179.833 608 M 1236 604 C 1236 604.550, 1237.093 605, 1238.429 605 C 1243.732 605, 1244 606.232, 1244 630.571 C 1244 651.667, 1243.881 653.119, 1242 655 C 1240.900 656.100, 1239.100 657, 1238 657 C 1236.900 657, 1236 657.450, 1236 658 C 1236 658.611, 1240.667 659, 1248 659 C 1259.530 659, 1263.413 657.908, 1256.940 656.487 C 1254.962 656.052, 1253.548 654.941, 1252.940 653.342 C 1252.423 651.982, 1252.007 641.787, 1252.015 630.685 C 1252.031 608.464, 1252.595 605.726, 1257.273 605.184 C 1258.773 605.010, 1260 604.447, 1260 603.934 C 1260 603.407, 1254.764 603, 1248 603 C 1240.667 603, 1236 603.389, 1236 604 M 1267 603.981 C 1267 604.520, 1268.237 605.261, 1269.750 605.627 C 1271.263 605.992, 1273.737 607.157, 1275.250 608.214 L 1278 610.136 1278 630.503 C 1278 641.705, 1277.577 651.982, 1277.060 653.342 C 1276.452 654.941, 1275.038 656.052, 1273.060 656.487 C 1266.968 657.825, 1270.213 659, 1280 659 C 1289.965 659, 1293.143 657.812, 1286.508 656.567 C 1284.037 656.104, 1282.857 655.267, 1282.473 653.706 C 1282.175 652.493, 1282.058 643.629, 1282.215 634.008 L 1282.500 616.516 1300.383 638.258 C 1310.219 650.216, 1318.657 660, 1319.133 660 C 1319.610 660, 1320 648.165, 1320 633.700 C 1320 605.418, 1320.076 605, 1325.200 605 C 1326.740 605, 1328 604.550, 1328 604 C 1328 603.400, 1324 603, 1318 603 C 1312 603, 1308 603.400, 1308 604 C 1308 604.550, 1309.013 605.007, 1310.250 605.015 C 1315.306 605.050, 1315.477 605.667, 1315.834 625.154 C 1316.110 640.263, 1315.939 643.194, 1314.834 642.276 C 1314.100 641.666, 1306.525 632.590, 1298 622.106 L 1282.500 603.045 1274.750 603.023 C 1270.335 603.010, 1267 603.422, 1267 603.981 M 403.315 606.071 C 394.855 608.601, 390.484 618.317, 391.187 633.030 C 391.902 647.973, 397.874 656, 408.280 656 C 417.681 656, 423.131 650.086, 425.122 637.725 C 427.067 625.649, 422.709 610.969, 416.177 607.591 C 412.288 605.580, 407.032 604.959, 403.315 606.071 M 902.604 606.038 C 894.585 608.438, 890.500 616.886, 890.500 631.071 C 890.500 639.746, 890.781 641.188, 893.500 646.464 C 897.294 653.827, 901.297 656.288, 908.592 655.742 C 915.058 655.259, 919.126 652.412, 922.164 646.243 C 924.140 642.231, 924.500 639.959, 924.500 631.500 C 924.500 616.165, 920.313 608.021, 911.362 605.944 C 906.836 604.894, 906.415 604.898, 902.604 606.038 M 23.645 624.497 C 21.545 629.331, 19.593 633.897, 19.307 634.643 C 18.893 635.721, 20.555 636, 27.378 636 L 35.971 636 33.919 630.750 C 32.791 627.862, 30.877 623.297, 29.665 620.604 L 27.462 615.708 23.645 624.497 M 536.130 618.159 C 535.620 619.499, 533.807 623.674, 532.102 627.436 C 530.396 631.198, 529 634.664, 529 635.138 C 529 635.612, 532.803 636, 537.452 636 L 545.903 636 541.854 626.250 C 539.627 620.888, 537.636 616.325, 537.430 616.111 C 537.224 615.898, 536.639 616.819, 536.130 618.159" stroke="none" fill="#0a1f5e" fill-rule="evenodd"></path><path d="M 672 1.610 C 629.691 7.269, 585.836 28.100, 548.398 60.321 C 485.163 114.745, 449.002 196.745, 451.302 280.500 C 451.717 295.610, 452.455 302.273, 455.899 322 C 462.229 358.264, 467.508 375.167, 480.597 401.085 C 489.760 419.228, 499.954 434.605, 517.334 456.500 C 534.967 478.714, 550.471 492.602, 576.920 509.878 C 606.296 529.065, 648.863 545.599, 675 547.976 C 680.775 548.502, 690.450 549.451, 696.500 550.086 C 710.164 551.520, 740.597 550.697, 755 548.503 C 767.926 546.535, 791.402 540.869, 796.056 538.595 C 797.950 537.669, 801.251 535.367, 803.390 533.478 L 807.280 530.046 796.502 513.273 C 790.574 504.048, 781.209 489.359, 775.691 480.631 C 762.074 459.093, 761.100 458.580, 739.365 461.500 C 693.869 467.611, 649.715 455.439, 610.500 425.977 C 600.847 418.724, 583.324 401.287, 575.854 391.500 C 556.737 366.452, 544.339 338.917, 539.610 311 C 532.470 268.847, 538.088 225.701, 555.145 191.712 C 582.334 137.530, 627.812 100.975, 681.849 89.867 C 694.305 87.307, 722.809 86.285, 736.586 87.905 C 780.242 93.039, 812.329 108.373, 841.719 138.148 C 858.618 155.269, 869.646 170.416, 879.539 190.101 C 893.728 218.331, 898.815 244.367, 897.692 283 C 896.864 311.488, 894.407 320.925, 878.877 355.264 C 867.540 380.333, 866 384.622, 866 391.129 C 866 395.225, 866.766 397.687, 869.664 402.904 C 873.083 409.058, 891.765 439.276, 902.345 455.765 L 907.006 463.030 911.989 460.505 C 922.808 455.023, 946.978 419.828, 959.396 391.473 C 982.739 338.172, 990.045 274.200, 978.987 219.937 C 965.756 155.013, 928.619 93.907, 877.403 52.792 C 864.609 42.521, 850.611 33.943, 829 23.131 C 788.726 2.982, 773.390 -0.089, 714 0.104 C 693.164 0.171, 678.945 0.681, 672 1.610 M 1133.500 0.709 C 1124.913 1.509, 1104.220 5.163, 1094.905 7.524 C 1062.264 15.798, 1028.933 32.138, 1000.965 53.576 C 982.923 67.405, 952.500 98.398, 952.500 102.948 C 952.500 104.845, 991.156 188.996, 992 188.937 C 992.275 188.918, 994.974 184.986, 997.998 180.201 C 1015.380 152.695, 1038.192 128.454, 1061 113.252 C 1116.957 75.954, 1198.043 75.954, 1254 113.252 C 1276.461 128.222, 1297.583 150.741, 1314.735 178 C 1318.022 183.225, 1321.707 189.454, 1322.923 191.842 C 1325.565 197.030, 1324.779 197.107, 1343.322 189.823 C 1358.789 183.747, 1377.508 174.463, 1389.303 167.019 C 1396.543 162.449, 1397.889 161.202, 1397.392 159.519 C 1396.358 156.014, 1384.580 133.872, 1378.765 124.500 C 1336.308 56.074, 1265.320 10.739, 1186.122 1.475 C 1174.691 0.138, 1144.368 -0.304, 1133.500 0.709 M 1324.740 355.990 C 1323.349 357.084, 1317.829 364.622, 1312.473 372.740 C 1293.087 402.126, 1281.377 415.970, 1265.516 428.253 C 1242.684 445.934, 1213.118 458.571, 1183 463.522 C 1168.122 465.968, 1144.984 465.800, 1129.919 463.138 C 1083.971 455.019, 1038.313 426.264, 1012.203 389 C 1009.698 385.425, 1004.045 377.614, 999.640 371.642 C 992.235 361.604, 991.525 360.925, 990.236 362.642 C 988.834 364.510, 982.497 377.312, 963.356 416.943 C 951.378 441.744, 950.861 444.235, 956.008 452.351 C 959.727 458.216, 984.765 483.440, 995.260 491.894 C 1039.749 527.733, 1091.629 546.702, 1150.571 548.680 C 1194.056 550.140, 1231.195 542.093, 1271.500 522.477 C 1295.112 510.985, 1312.860 498.927, 1332.109 481.299 C 1356.886 458.609, 1375.991 433.480, 1391.120 403.685 L 1398.135 389.870 1394.678 385.685 C 1391.658 382.030, 1387.586 379.759, 1362.510 367.750 C 1332.316 353.290, 1329.348 352.365, 1324.740 355.990" stroke="none" fill="#847c7c" fill-rule="evenodd"></path></svg>